<mxfile host="app.diagrams.net" modified="2025-07-03T08:40:23.124Z" agent="Mozilla/5.0 (Macintosh; Intel Mac OS X 10_15_7) AppleWebKit/537.36 (KHTML, like Gecko) Chrome/131.0.0.0 Safari/537.36 Edg/131.0.0.0" version="24.1.0" etag="Gl_V9M9xTZDbp_D3TpTD" type="github">
  <diagram name="第 1 页" id="R_E_uJiEFd_dZHsjgAX_">
    <mxGraphModel>
      <root>
        <mxCell id="0" />
        <mxCell id="1" parent="0" />
      </root>
    </mxGraphModel>
  </diagram>
</mxfile>
